<svg version="1" xmlns="http://www.w3.org/2000/svg" width="682.667" height="682.667" viewBox="0 0 512.000000 512.000000"><path d="M19.4 56.6c-.1 3.5-.4 7.5-1.9 24.4-.2 2.5-.7 8.3-1 13-.3 4.7-.8 10.1-1 12-.2 1.9-.7 7.3-1.1 12-.4 4.7-.8 9.8-.9 11.5-.2 1.6-.6 7-1 12-.3 4.9-.8 10.6-1 12.5-.2 1.9-.6 6.9-1 11-.3 4.1-.8 10-1.1 13-.7 8-1.3 15.6-1.9 23.5-.3 3.8-.8 9.6-1 12.7l-.6 5.6 5.3 1.1c29.7 5.8 41.2 8 41.4 7.8.2-.2.5-9.1 1.9-59.2.3-7.7.7-20.8.9-29 .3-8.3.8-24.5 1.1-36 .3-11.6.8-26.7 1-33.7l.4-12.7-3.7-.6c-2-.3-6.4-1-9.7-1.6-6.2-1-8.9-1.3-19-2.5l-6-.6-.1 3.8zM108.3 64.8c-6 .2-7.3.6-7.4 2-.1.9-.2 3-.4 4.7-.1 1.6-.6 7.3-.9 12.5-.4 5.2-.9 11.1-1.1 13-.4 3.9-1.4 16-2 26-.2 3.6-.6 8.7-.9 11.5-.3 2.7-.8 8.8-1.1 13.5-.4 4.7-.8 10.3-1 12.5-.2 2.2-.6 8.5-1 14s-.9 10.3-1.1 10.6c-.2.4.2.9.9 1.2 4.9 1.9 44.6 18 46.2 18.7 7.3 3.4 29.6 11.7 29.9 11.2.9-1.6 10.7-32.4 10.4-32.7-.3-.4-14.8-3.9-50.8-12.4l-17.6-4.2-.2-3c-.1-1.8.2-2.9 1-2.9.7 0 7.8 1.1 15.8 2.5s16.1 2.8 18 3.1c1.9.2 5.8.9 8.5 1.4 2.8.6 6.8 1.2 9 1.6 2.2.3 5.6.9 7.5 1.3 8 1.7 18.5 1.2 30.1-1.4 12.1-2.8 19.6-3.4 26.9-2.1 8.7 1.5 27.6 6.7 40.5 11 20.7 7.1 25.4 8.1 37.5 8.1 12.7 0 18.3-3.9 18.2-12.5-.2-12.7-16.4-22-65.4-37.8-12.6-4.1-17.6-6.5-22.8-10.9-5.6-4.8-8-10.4-6.8-15.8 1.1-4.6 2.8-6.8 8-10.1 6.1-3.9 12.3-3 19.3 2.8 3.5 2.9 8.7 5.3 13.3 6.3 3.6.7 10.2 5.9 10.2 7.9 0 .7 1.5 3 3.3 5.1l3.3 3.8h15.7c14.9 0 18.4-.5 16.1-2.1-.5-.4-3.4-3.9-6.4-7.7-16.1-20.6-37.1-42.9-43.2-46.1-3.7-1.9-11.4-3.1-26.3-4-11-.7-119.5-1.2-133.2-.6zM70.9 68.8c-.1 2-.2 5-.4 6.7-.1 1.6-.6 9.3-1 17-.4 7.7-.8 16.7-1.1 20-.6 9.8-1.4 24.4-1.9 33.5-.4 8.8-1.3 24.5-2.1 38.5-.2 4.4-.6 11.9-1 16.7l-.5 8.8H79l.1-2.8c0-1.5.2-3.6.4-4.7.3-1.1.7-5 1-8.6.3-3.6.7-8.1 1-10 .2-1.9.7-5.9 1-8.9.3-3 .8-6.9 1-8.5.3-1.7.7-6.2 1-10 .3-3.9.8-8.1 1-9.5.2-1.4.7-5.4 1-9 .3-3.6.8-7.6 1-9 .3-1.4.7-5.4 1-9 .3-3.6.8-8.2 1-10.3.3-2 .7-5.4 1-7.5.2-2 .7-6.4 1.1-9.7.3-3.3.7-7.1.9-8.5.1-1.4.6-6.2 1-10.7l.7-8.2H82.6L71 65l-.1 3.8z"/><path d="M478.5 124.1c-4.4 1.5-9.3 3-11 3.3-1.6.2-4 .7-5.1 1-1.2.2-3.9.7-6 1-2.2.4-5.2.8-6.9 1.1-4.2.6-9.1 1.3-15 2-2.7.3-6.8.8-9 1-3.8.4-12.4 1.1-26 2-19.4 1.3-41.7 1.9-69.7 2-17.4 0-31.4.3-31.1.7.2.5 1.2.8 2.1.8 2.7 0 16.6 6.4 22.6 10.4 6.4 4.2 10.9 9.3 12.3 13.9 1.8 5.8.3 19.5-2.6 24.4-2.8 4.6-10.7 7.9-22.3 9.3-17.4 2.2-29 .6-58.9-8-11.6-3.4-20.8-5.8-29.4-7.6-5.5-1.2-21.3-1.1-25.6.2l-4.6 1.4-3.2 13.7c-1.8 7.6-4.3 17.9-5.5 23l-2.2 9.1 3 .6c1.7.3 4.2.8 5.6 1.1 7.5 1.5 14.5 2.6 27.5 4.5 4.4.7 8.7 1.4 9.6 1.5.9.2 4 .6 7 1 3 .3 6.5.8 7.9 1 1.4.2 5 .7 8 1 3 .3 6.6.8 8 1 1.4.2 5.9.7 10 1 4.1.3 8.6.8 10 1 1.4.2 6.6.7 11.5 1 5 .3 11 .8 13.5 1 28 2.4 104.9 2.4 125 0 1.4-.1 6.1-.6 10.5-.9 4.4-.4 9.4-.9 11-1.1 1.7-.2 5.2-.6 7.9-.9 7.8-.9 17.4-2.3 21.9-3.2 2.4-.5 2.7-1 2.8-4.7.1-2.3.3-6 .4-8.2.1-2.2.5-10.3.9-18 .3-7.7.9-17.4 1.1-21.5.6-9.9 1.3-24.5 2.1-40.5.3-7.2.7-15.6.9-18.8.2-3.1.1-5.6-.3-5.6-.4.1-4.3 1.4-8.7 3zM215.9 248.1c-.6 5.8 2.2 12.6 5.9 14 3 1.2 5.8-.9 7.8-5.8 2.5-5.9 2-7-3.8-7.7-2.9-.4-6.3-1-7.5-1.3-1.5-.3-2.3 0-2.4.8zM233.3 256.4c1.1 11.9 6 19.1 11 16.4 2.6-1.3 5.4-8.2 6.2-14.9l.7-5.6-3.4-.6c-1.8-.4-6-.9-9.2-1.3l-5.9-.6.6 6.6zM256 255.2c0 13.3 7.4 26.1 13.6 23.8 3.7-1.4 7.6-8.5 9-16.4.2-1.4.6-3.7.8-5 .5-2.7-.6-3-15.1-4.2l-8.3-.7v2.5zM378.7 301.6c-.1.1-2.8.4-5.9.7-14.4 1.4-29 7.1-48.5 18.8-12.4 7.5-16.1 8.4-40.8 10.4-17.4 1.4-42 7.6-50.1 12.5-6.1 3.8-7.7 7.2-7.2 14.9.6 8.1 3.6 14.2 8.6 17.3 3.3 2 5.7 2.1 14.2.3 2.7-.5 12.5-2.4 16.2-3 12.3-2.1 21.7-3.6 24.4-4 1.9-.3 5.1-.8 7.2-1.1 5.7-1 15.8-.8 25.7.4 5 .7 12.8 1.1 17.5.9l8.5-.2 1.8 3.9c1 2.2 1.4 4.3 1 4.6-1.1 1-20.6 7-24.1 7.4-1.5.2-7.8 2.9-14 6-12.1 5.9-20.6 8.9-28.7 10.1-5.3.7-22.6.8-26 .2-1.1-.3-5.1-.8-9-1.1-10.7-1.1-23.1-4.3-30.4-7.9-4.2-2.1-9.8-6.3-16.1-12.2-5.4-5-12.2-10.3-15.4-11.9-11.5-5.8-22.2-4.2-24.2 3.8-.5 2.2 0 3.2 3.5 6.5 3.8 3.6 4 4 2.1 4.6-3.1 1-4.3 4.1-3.5 9.2 1 6.9 8.1 13.8 38.5 37.3 7.9 6.1 16.1 12 18.2 13.1 2 1 7.2 2.4 11.5 3 6.4.9 26 4.4 40.8 7.4 7.6 1.5 18.5 3.4 23 3.9 2.8.4 7.6 1 10.8 1.5 7.9 1.1 13.6.5 19.9-2 7.1-2.7 26.2-12.8 48.3-25.4 50.1-28.6 53.8-30.4 66.3-32.5 3.9-.6 7-1.5 6.8-1.8-.2-.4-.7-5-1-10.2-.4-5.2-.9-11.2-1.1-13.4-.2-2.1-.7-7.2-.9-11.5-.3-4.2-.8-10.3-1.1-13.6-.8-8.6-1.3-14.7-2.1-25.2-.5-7.1-1-9.3-2.3-9.8-11.4-4.7-31.3-9.9-42.2-11-6.9-.7-19.7-1.3-20.2-.9zM473.4 311c.4 5 .9 9.9 1.1 10.8.1.9.6 6.2 1 11.7.4 5.5.9 11.6 1 13.5 1.3 16.3 2 34.3 2 55v24.5h26l.6-6c.7-7.1.4-68.2-.5-77.5-.3-3.6-.8-8.5-1.1-11-.2-2.5-.7-6.8-1-9.5-.7-6.2-1.1-9.7-2-15.7l-.7-4.6-13.5-.1-13.5-.2.6 9.1zM456.4 319.2c-.5.8.3 13.3 1.1 18.6.2 1.2.7 5.9 1 10.5.4 4.5.8 9.8 1 11.7 1.4 14.5 2.3 30.7 2.4 41.7l.1 8.3h10l.1-4.8c.4-15.3.2-44.2-.4-53.7-1-15.2-3.1-31.2-4.2-32.4-1-.9-10.5-.8-11.1.1z"/></svg>